{
  "accessors": [
    {
      "bufferView": 2,
      "componentType": 5126,
      "count": 810,
      "max": [
        78.731964111328125,
        75.061691284179688,
        99.450019836425781
      ],
      "min": [
        -75.231155395507812,
        -279.68646240234375,
        -128.05758666992188
      ],
      "type": "VEC3"
    },
    {
      "bufferView": 2,
      "byteOffset": 9720,
      "componentType": 5126,
      "count": 810,
      "max": [
        0.9998171329498291,
        0.99999421834945679,
        0.99615484476089478
      ],
      "min": [
        -0.9998171329498291,
        -0.99999874830245972,
        -0.99999916553497314
      ],
      "type": "VEC3"
    },
    {
      "bufferView": 1,
      "componentType": 5126,
      "count": 810,
      "max": [
        1,
        1
      ],
      "min": [
        0,
        0
      ],
      "type": "VEC2"
    },
    {
      "bufferView": 0,
      "componentType": 5125,
      "count": 3114,
      "max": [
        809
      ],
      "min": [
        0
      ],
      "type": "SCALAR"
    }
  ],
  "asset": {
    "extras": {
      "author": "Raphael C (https://sketchfab.com/Qurka)",
      "license": "CC-BY-4.0 (http://creativecommons.org/licenses/by/4.0/)",
      "source": "https://sketchfab.com/3d-models/buffalo-low-poly-a434339540a84a87a8e37c643ca816fd",
      "title": "Buffalo Low Poly"
    },
    "generator": "Sketchfab-9.6.0",
    "version": "2.0"
  },
  "bufferViews": [
    {
      "buffer": 0,
      "byteLength": 12456,
      "byteOffset": 0,
      "name": "floatBufferViews",
      "target": 34963
    },
    {
      "buffer": 0,
      "byteLength": 6480,
      "byteOffset": 12456,
      "byteStride": 8,
      "name": "floatBufferViews",
      "target": 34962
    },
    {
      "buffer": 0,
      "byteLength": 19440,
      "byteOffset": 18936,
      "byteStride": 12,
      "name": "floatBufferViews",
      "target": 34962
    }
  ],
  "buffers": [
    {
      "byteLength": 38376,
      "uri": "scene.bin"
    }
  ],
  "extensionsRequired": [
    "KHR_materials_pbrSpecularGlossiness"
  ],
  "extensionsUsed": [
    "KHR_materials_pbrSpecularGlossiness"
  ],
  "materials": [
    {
      "doubleSided": true,
      "extensions": {
        "KHR_materials_pbrSpecularGlossiness": {
          "diffuseFactor": [
            0.31034588596650331,
            0.31034588596650331,
            0.31034588596650331,
            1
          ],
          "glossinessFactor": 1,
          "specularFactor": [
            0,
            0,
            0
          ]
        }
      },
      "name": "Scene_-_Root"
    }
  ],
  "meshes": [
    {
      "name": "Box001__0",
      "primitives": [
        {
          "attributes": {
            "NORMAL": 1,
            "POSITION": 0,
            "TEXCOORD_0": 2
          },
          "indices": 3,
          "material": 0,
          "mode": 4
        }
      ]
    }
  ],
  "nodes": [
    {
      "children": [
        1
      ],
      "name": "RootNode (gltf orientation matrix)",
      "rotation": [
        -0.70710678118654746,
        -0,
        -0,
        0.70710678118654757
      ]
    },
    {
      "children": [
        2
      ],
      "name": "RootNode (model correction matrix)"
    },
    {
      "children": [
        3
      ],
      "matrix": [
        1,
        0,
        0,
        0,
        0,
        0,
        1,
        0,
        0,
        -1,
        0,
        0,
        0,
        0,
        0,
        1
      ],
      "name": "044d532fa20241f189235377cccb2415.fbx"
    },
    {
      "children": [
        4
      ],
      "name": "RootNode"
    },
    {
      "children": [
        5
      ],
      "matrix": [
        5.9640560150146484,
        0,
        0,
        0,
        0,
        1.0983817157807782e-15,
        -4.9466714859008789,
        0,
        0,
        4.9466714859008789,
        1.0983817157807782e-15,
        0,
        0,
        0,
        0,
        1
      ],
      "name": "Box001"
    },
    {
      "children": [
        6
      ],
      "matrix": [
        1,
        0,
        -0,
        0,
        0,
        1,
        0,
        0,
        0,
        0,
        1,
        0,
        -1.75040566921234,
        102.312385559082,
        14.3037872314453,
        1
      ],
      "name": ""
    },
    {
      "mesh": 0,
      "name": "Box001__0"
    }
  ],
  "scene": 0,
  "scenes": [
    {
      "name": "OSG_Scene",
      "nodes": [
        0
      ]
    }
  ]
}

