{
  "accessors": [
    {
      "bufferView": 2,
      "componentType": 5126,
      "count": 42,
      "max": [
        0.44792884588241577,
        5.8868274688720703,
        0.20001129806041718
      ],
      "min": [
        -0.4479290246963501,
        0.19337582588195801,
        0.030373886227607727
      ],
      "type": "VEC3"
    },
    {
      "bufferView": 2,
      "byteOffset": 504,
      "componentType": 5126,
      "count": 42,
      "max": [
        0.99967938661575317,
        0.5565980076789856,
        0.98963689804077148
      ],
      "min": [
        -0.99967944622039795,
        -0.025320874527096748,
        -0.98963689804077148
      ],
      "type": "VEC3"
    },
    {
      "bufferView": 3,
      "componentType": 5126,
      "count": 42,
      "max": [
        0,
        0,
        0,
        1
      ],
      "min": [
        0,
        0,
        0,
        1
      ],
      "type": "VEC4"
    },
    {
      "bufferView": 1,
      "componentType": 5126,
      "count": 42,
      "max": [
        0.40104925632476807,
        0.88266825675964355
      ],
      "min": [
        0.098950706422328949,
        0.61733174324035645
      ],
      "type": "VEC2"
    },
    {
      "bufferView": 0,
      "componentType": 5125,
      "count": 54,
      "max": [
        41
      ],
      "min": [
        0
      ],
      "type": "SCALAR"
    },
    {
      "bufferView": 2,
      "byteOffset": 1008,
      "componentType": 5126,
      "count": 132,
      "max": [
        0.53189963102340698,
        5.9744472503662109,
        0.15271036326885223
      ],
      "min": [
        -0.53189975023269653,
        0.024611681699752808,
        0.07767486572265625
      ],
      "type": "VEC3"
    },
    {
      "bufferView": 2,
      "byteOffset": 2592,
      "componentType": 5126,
      "count": 132,
      "max": [
        1,
        0.67694282531738281,
        1
      ],
      "min": [
        -1,
        -1,
        -1
      ],
      "type": "VEC3"
    },
    {
      "bufferView": 3,
      "byteOffset": 672,
      "componentType": 5126,
      "count": 132,
      "max": [
        0.99285233020782471,
        0.73567891120910645,
        0.75751173496246338,
        1
      ],
      "min": [
        0,
        -0.73567837476730347,
        -0.75751078128814697,
        -1
      ],
      "type": "VEC4"
    },
    {
      "bufferView": 1,
      "byteOffset": 336,
      "componentType": 5126,
      "count": 132,
      "max": [
        0.41010177135467529,
        0.80734038352966309
      ],
      "min": [
        0.08989822119474411,
        0.69265955686569214
      ],
      "type": "VEC2"
    },
    {
      "bufferView": 0,
      "byteOffset": 216,
      "componentType": 5125,
      "count": 192,
      "max": [
        131
      ],
      "min": [
        0
      ],
      "type": "SCALAR"
    },
    {
      "bufferView": 2,
      "byteOffset": 4176,
      "componentType": 5126,
      "count": 126,
      "max": [
        0.33987092971801758,
        0.19337582588195801,
        0.35124784708023071
      ],
      "min": [
        -0.33987113833427429,
        -1.9010422229766846,
        -0.12086272239685059
      ],
      "type": "VEC3"
    },
    {
      "bufferView": 2,
      "byteOffset": 5688,
      "componentType": 5126,
      "count": 126,
      "max": [
        1,
        1,
        0.91912150382995605
      ],
      "min": [
        -1,
        -1,
        -0.9191213846206665
      ],
      "type": "VEC3"
    },
    {
      "bufferView": 3,
      "byteOffset": 2784,
      "componentType": 5126,
      "count": 126,
      "max": [
        1,
        2.979277951453696e-06,
        0.94155389070510864,
        1
      ],
      "min": [
        0,
        -2.979284090542933e-06,
        -0.94155365228652954,
        -1
      ],
      "type": "VEC4"
    },
    {
      "bufferView": 1,
      "byteOffset": 1392,
      "componentType": 5126,
      "count": 126,
      "max": [
        0.89263409376144409,
        0.89977520704269409
      ],
      "min": [
        0.08989822119474411,
        0.60022479295730591
      ],
      "type": "VEC2"
    },
    {
      "bufferView": 0,
      "byteOffset": 984,
      "componentType": 5125,
      "count": 192,
      "max": [
        125
      ],
      "min": [
        0
      ],
      "type": "SCALAR"
    },
    {
      "bufferView": 2,
      "byteOffset": 7200,
      "componentType": 5126,
      "count": 192,
      "max": [
        0.58944308757781982,
        0.024611681699752808,
        0.49344789981842041
      ],
      "min": [
        -0.58944326639175415,
        -1.5500799417495728,
        -0.26306271553039551
      ],
      "type": "VEC3"
    },
    {
      "bufferView": 2,
      "byteOffset": 9504,
      "componentType": 5126,
      "count": 192,
      "max": [
        1,
        1,
        0.95218676328659058
      ],
      "min": [
        -1,
        -1,
        -0.95218664407730103
      ],
      "type": "VEC3"
    },
    {
      "bufferView": 3,
      "byteOffset": 4800,
      "componentType": 5126,
      "count": 192,
      "max": [
        1,
        0.77862751483917236,
        1,
        1
      ],
      "min": [
        -0.9521867036819458,
        -0.97886013984680176,
        -1,
        -1
      ],
      "type": "VEC4"
    },
    {
      "bufferView": 1,
      "byteOffset": 2400,
      "componentType": 5126,
      "count": 192,
      "max": [
        1,
        0.99000000953674316
      ],
      "min": [
        -8.9406967163085938e-08,
        0
      ],
      "type": "VEC2"
    },
    {
      "bufferView": 0,
      "byteOffset": 1752,
      "componentType": 5125,
      "count": 324,
      "max": [
        191
      ],
      "min": [
        0
      ],
      "type": "SCALAR"
    },
    {
      "bufferView": 2,
      "byteOffset": 11808,
      "componentType": 5126,
      "count": 240,
      "max": [
        0.093836173415184021,
        -0.015243202447891235,
        0.56259191036224365
      ],
      "min": [
        -0.093836471438407898,
        -0.21257361769676208,
        0.3652614951133728
      ],
      "type": "VEC3"
    },
    {
      "bufferView": 2,
      "byteOffset": 14688,
      "componentType": 5126,
      "count": 240,
      "max": [
        0.99207746982574463,
        0.94122511148452759,
        0.94352161884307861
      ],
      "min": [
        -0.99207735061645508,
        -0.94352400302886963,
        -0.94352161884307861
      ],
      "type": "VEC3"
    },
    {
      "bufferView": 3,
      "byteOffset": 7872,
      "componentType": 5126,
      "count": 240,
      "max": [
        0.98668950796127319,
        0.14367073774337769,
        1,
        1
      ],
      "min": [
        -0.98668938875198364,
        -0.14367079734802246,
        -1,
        1
      ],
      "type": "VEC4"
    },
    {
      "bufferView": 1,
      "byteOffset": 3936,
      "componentType": 5126,
      "count": 240,
      "max": [
        1,
        1
      ],
      "min": [
        0,
        0.52761799097061157
      ],
      "type": "VEC2"
    },
    {
      "bufferView": 0,
      "byteOffset": 3048,
      "componentType": 5125,
      "count": 240,
      "max": [
        239
      ],
      "min": [
        0
      ],
      "type": "SCALAR"
    },
    {
      "bufferView": 2,
      "byteOffset": 17568,
      "componentType": 5126,
      "count": 336,
      "max": [
        0.20427253842353821,
        -0.25242850184440613,
        0.36362195014953613
      ],
      "min": [
        -0.20427277684211731,
        -1.6864380836486816,
        -0.13323670625686646
      ],
      "type": "VEC3"
    },
    {
      "bufferView": 2,
      "byteOffset": 21600,
      "componentType": 5126,
      "count": 336,
      "max": [
        0.99595379829406738,
        0.98012077808380127,
        0.83181649446487427
      ],
      "min": [
        -0.99595379829406738,
        -0.97634440660476685,
        -0.83181643486022949
      ],
      "type": "VEC3"
    },
    {
      "bufferView": 3,
      "byteOffset": 11712,
      "componentType": 5126,
      "count": 336,
      "max": [
        0.88476437330245972,
        0.99550175666809082,
        1,
        1
      ],
      "min": [
        -0.8674628734588623,
        -0.99595379829406738,
        -0.98588842153549194,
        -1
      ],
      "type": "VEC4"
    },
    {
      "bufferView": 1,
      "byteOffset": 5856,
      "componentType": 5126,
      "count": 336,
      "max": [
        0.93991571664810181,
        0.95260083675384521
      ],
      "min": [
        0.56008428335189819,
        0.54739922285079956
      ],
      "type": "VEC2"
    },
    {
      "bufferView": 0,
      "byteOffset": 4008,
      "componentType": 5125,
      "count": 504,
      "max": [
        335
      ],
      "min": [
        0
      ],
      "type": "SCALAR"
    }
  ],
  "asset": {
    "extras": {
      "author": "Akien (https://sketchfab.com/Akien)",
      "license": "CC-BY-4.0 (http://creativecommons.org/licenses/by/4.0/)",
      "source": "https://sketchfab.com/3d-models/low-poly-sword-from-yansculpts-tutorial-2581d806a8a04812be9bffd4a43e0be7",
      "title": "Low-poly Sword from YanSculpts tutorial"
    },
    "generator": "Sketchfab-5.99.0",
    "version": "2.0"
  },
  "bufferViews": [
    {
      "buffer": 0,
      "byteLength": 6024,
      "byteOffset": 0,
      "name": "floatBufferViews",
      "target": 34963
    },
    {
      "buffer": 0,
      "byteLength": 8544,
      "byteOffset": 6024,
      "byteStride": 8,
      "name": "floatBufferViews",
      "target": 34962
    },
    {
      "buffer": 0,
      "byteLength": 25632,
      "byteOffset": 14568,
      "byteStride": 12,
      "name": "floatBufferViews",
      "target": 34962
    },
    {
      "buffer": 0,
      "byteLength": 17088,
      "byteOffset": 40200,
      "byteStride": 16,
      "name": "floatBufferViews",
      "target": 34962
    }
  ],
  "buffers": [
    {
      "byteLength": 57288,
      "uri": "scene.bin"
    }
  ],
  "materials": [
    {
      "doubleSided": true,
      "emissiveFactor": [
        0,
        0,
        0
      ],
      "name": "grey",
      "pbrMetallicRoughness": {
        "baseColorFactor": [
          0.29500399999999999,
          0.46463599999999983,
          0.50706899999999999,
          1
        ],
        "metallicFactor": 0.76249999999999996,
        "roughnessFactor": 0.31874999999999998
      }
    },
    {
      "doubleSided": true,
      "emissiveFactor": [
        0,
        0,
        0
      ],
      "name": "dark",
      "pbrMetallicRoughness": {
        "baseColorFactor": [
          0.027883600000000005,
          0.051592399999999969,
          0.083531600000000011,
          1
        ],
        "metallicFactor": 0.74375000000000002,
        "roughnessFactor": 0.34999999999999998
      }
    },
    {
      "doubleSided": true,
      "emissiveFactor": [
        0,
        0,
        0
      ],
      "name": "yellow",
      "pbrMetallicRoughness": {
        "baseColorFactor": [
          0.80000000000000004,
          0.57249700000000003,
          0.217669,
          1
        ],
        "metallicFactor": 0,
        "roughnessFactor": 0.5
      }
    },
    {
      "doubleSided": true,
      "emissiveFactor": [
        0,
        0,
        0
      ],
      "name": "green",
      "pbrMetallicRoughness": {
        "baseColorFactor": [
          0.056995869673979911,
          0.38062906975693028,
          0.10228584195291233,
          1
        ],
        "metallicFactor": 0,
        "roughnessFactor": 0.83125000000000004
      }
    },
    {
      "doubleSided": true,
      "emissiveFactor": [
        0.13363469607260389,
        1,
        1
      ],
      "name": "blue",
      "pbrMetallicRoughness": {
        "baseColorFactor": [
          0.024583500000000008,
          0.34540799999999972,
          0.43854399999999971,
          1
        ],
        "metallicFactor": 0,
        "roughnessFactor": 0.5
      }
    },
    {
      "doubleSided": true,
      "emissiveFactor": [
        0,
        0,
        0
      ],
      "name": "brown",
      "pbrMetallicRoughness": {
        "baseColorFactor": [
          0.259799,
          0.14651700000000001,
          0.10793999999999999,
          1
        ],
        "metallicFactor": 0,
        "roughnessFactor": 0.5
      }
    }
  ],
  "meshes": [
    {
      "primitives": [
        {
          "attributes": {
            "NORMAL": 1,
            "POSITION": 0,
            "TANGENT": 2,
            "TEXCOORD_0": 3
          },
          "indices": 4,
          "material": 0,
          "mode": 4
        }
      ]
    },
    {
      "primitives": [
        {
          "attributes": {
            "NORMAL": 6,
            "POSITION": 5,
            "TANGENT": 7,
            "TEXCOORD_0": 8
          },
          "indices": 9,
          "material": 1,
          "mode": 4
        }
      ]
    },
    {
      "primitives": [
        {
          "attributes": {
            "NORMAL": 11,
            "POSITION": 10,
            "TANGENT": 12,
            "TEXCOORD_0": 13
          },
          "indices": 14,
          "material": 2,
          "mode": 4
        }
      ]
    },
    {
      "primitives": [
        {
          "attributes": {
            "NORMAL": 16,
            "POSITION": 15,
            "TANGENT": 17,
            "TEXCOORD_0": 18
          },
          "indices": 19,
          "material": 3,
          "mode": 4
        }
      ]
    },
    {
      "primitives": [
        {
          "attributes": {
            "NORMAL": 21,
            "POSITION": 20,
            "TANGENT": 22,
            "TEXCOORD_0": 23
          },
          "indices": 24,
          "material": 4,
          "mode": 4
        }
      ]
    },
    {
      "primitives": [
        {
          "attributes": {
            "NORMAL": 26,
            "POSITION": 25,
            "TANGENT": 27,
            "TEXCOORD_0": 28
          },
          "indices": 29,
          "material": 5,
          "mode": 4
        }
      ]
    }
  ],
  "nodes": [
    {
      "children": [
        1
      ],
      "name": "RootNode (gltf orientation matrix)",
      "rotation": [
        -0.70710678118654746,
        -0,
        -0,
        0.70710678118654757
      ]
    },
    {
      "children": [
        2
      ],
      "name": "RootNode (model correction matrix)"
    },
    {
      "children": [
        3
      ],
      "name": "root"
    },
    {
      "children": [
        4
      ],
      "matrix": [
        1,
        0,
        0,
        0,
        0,
        2.2204460492503131e-16,
        1,
        0,
        0,
        -1,
        2.2204460492503131e-16,
        0,
        0,
        0,
        0,
        1
      ],
      "name": "GLTF_SceneRootNode"
    },
    {
      "children": [
        5,
        6,
        7,
        8,
        9,
        10
      ],
      "name": "Cylinder_0"
    },
    {
      "mesh": 0,
      "name": ""
    },
    {
      "mesh": 1,
      "name": ""
    },
    {
      "mesh": 2,
      "name": ""
    },
    {
      "mesh": 3,
      "name": ""
    },
    {
      "mesh": 4,
      "name": ""
    },
    {
      "mesh": 5,
      "name": ""
    }
  ],
  "scene": 0,
  "scenes": [
    {
      "name": "OSG_Scene",
      "nodes": [
        0
      ]
    }
  ]
}

